<?xml version="1.0" encoding="UTF-8"?>
<svg xmlns="http://www.w3.org/2000/svg" xmlns:xlink="http://www.w3.org/1999/xlink" width="14px" height="11.3638544px" viewBox="0 0 14 11.3638544" version="1.1">
  <title>Icon/线性图标/提示</title>
  <g id="消息通知中心后台" stroke="none" stroke-width="1" fill="none" fill-rule="evenodd">
    <g id="新建预览-跑马灯-多个公告" transform="translate(-41, -14.5)">
      <g id="Icon/线性图标/提示" transform="translate(40, 12)">
        <path d="M14.4455064,7.53397033 L11.7452057,7.53397033 C11.4388479,7.53397033 11.1907121,7.78343367 11.1907121,8.09066388 L11.1907121,8.26441962 C11.1907121,8.57209234 11.4388606,8.82111317 11.7452057,8.82111317 L14.4455064,8.82111317 C14.7518642,8.82111317 15,8.57209234 15,8.26441962 L15,8.09066388 C15,7.78343367 14.7518516,7.53397033 14.4455064,7.53397033 Z M8.18010897,2.7561487 C7.3402579,3.42400142 5.58264827,4.36013059 4.31784599,5.25994844 L4.31608859,5.26082082 C4.30163739,5.26958257 4.28719883,5.31947271 4.27276028,5.32777931 C4.12307721,5.41180614 4.05611873,5.64420113 3.24384253,5.64420113 L1.65910361,5.64420113 C1.25253564,5.64420113 1,5.83457007 1,6.26390848 L1,10.0802134 C1,10.5095391 1.23150997,10.7213636 1.65910361,10.7213636 L3.25039171,10.7213636 C4.05873588,10.7226785 4.12437947,10.9533161 4.2731775,11.0373556 C4.2876287,11.0456621 4.30162474,11.0955649 4.31650581,11.104314 L4.31826322,11.1051864 C5.543252,12.0049916 7.3126704,13.0142239 8.18052619,13.6545017 C8.4417983,13.8475005 9.31096899,14.1866927 9.31096899,12.9940832 C9.31096899,11.5905469 9.31096899,4.75794946 9.31096899,3.3657794 C9.31096899,2.17275268 8.43479396,2.55394571 8.18008368,2.75613606 L8.18010897,2.7561487 Z M10.6738447,5.38730358 C10.8173958,5.64025645 11.1014257,5.7037254 11.3088756,5.52909727 L13.5286328,3.65814118 C13.7360701,3.4835257 13.7877303,3.13689922 13.6446091,2.88350384 L13.5631994,2.74039525 C13.4200908,2.48744238 13.1356184,2.42397343 12.9285983,2.59860156 L10.7088411,4.46911514 C10.5014038,4.64417314 10.4493138,4.99078697 10.5928649,5.24375248 L10.6738321,5.38730358 L10.6738447,5.38730358 Z M11.3084331,10.8356077 C11.1009958,10.6609922 10.8169533,10.7244359 10.6734022,10.9769715 L10.592435,11.1200801 C10.4488839,11.373033 10.5014038,11.7196595 10.7084113,11.8947175 L12.9281685,13.765231 C13.1356057,13.9398465 13.4196483,13.8764029 13.5627695,13.6238672 L13.6441792,13.4807586 C13.7872878,13.2278058 13.7352104,12.8811793 13.528203,12.7061213 L11.3084458,10.8356077 L11.3084331,10.8356077 Z" id="形状" fill="#E6AA00"></path>
        <rect id="codesign_placeholder_name" x="0" y="0" width="16" height="16"></rect>
      </g>
    </g>
  </g>
</svg>
